<svg width="960" height="230" viewBox="0 0 960 230" fill="none" xmlns="http://www.w3.org/2000/svg">
  <title>Marlen, a local-first AI email assistant</title>
  <g transform="translate(299.74 56.00) scale(0.33745)">
    <path d="M287.5 209.11L233.5 196V62L199.397 89.7686C203.122 140.432 188.802 161.012 159.5 193C181.351 207.946 194.768 213.957 220.5 221V242.5C187.319 232.254 170.058 224.803 144 205.5C115.914 225.35 99.0324 232.634 68 242.5V221C91.4174 214.135 104.656 208.182 128.5 193C96.1303 161.068 85.12 125.771 88.96 89.5791L54 62V196L0 209.11L34 0L144 101L166.5 82L167.462 85.3242L174.5 106L144.5 133L144.995 131.861L144 133L107.138 103.92C108.764 130.39 118.819 140.393 144 169C193.5 119.5 193.5 76.5 144 30C130.558 41.009 125.106 48.1837 117.5 62L101.5 48.5C115.105 29.9676 123.726 20.0253 144 4.5C168.022 23.9409 178.472 35.721 191 58.5L253.5 0L287.5 209.11Z" fill="#7124FF"/>
  </g>
  <g transform="translate(420.93 122.56) scale(0.072000 -0.072000)">
    <path d="M80 0V710H255L451 160L647 710H822V0H692V490L513 1H389L210 490V0ZM1117 -12Q1033 -12 982.0 26.5Q931 65 931 134Q931 203 974.0 242.0Q1017 281 1105 298L1282 333Q1282 390 1256.0 418.5Q1230 447 1179 447Q1133 447 1106.5 425.5Q1080 404 1070 364L940 370Q956 455 1018.0 500.5Q1080 546 1179 546Q1293 546 1351.5 488.5Q1410 431 1410 324V130Q1410 109 1417.5 101.0Q1425 93 1440 93H1457V0Q1451 -2 1437.5 -3.0Q1424 -4 1410 -4Q1377 -4 1351.0 6.5Q1325 17 1311.0 43.5Q1297 70 1297 116L1308 108Q1300 73 1273.5 45.5Q1247 18 1207.0 3.0Q1167 -12 1117 -12ZM1143 81Q1186 81 1217.0 98.0Q1248 115 1265.0 145.0Q1282 175 1282 216V246L1144 218Q1101 209 1082.5 191.5Q1064 174 1064 146Q1064 115 1084.5 98.0Q1105 81 1143 81ZM1540 0V534H1660L1665 386L1654 388Q1666 465 1699.5 499.5Q1733 534 1791 534H1840V424H1790Q1749 424 1722.0 412.0Q1695 400 1681.5 374.5Q1668 349 1668 308V0ZM2051 0Q1993 0 1958.0 30.0Q1923 60 1923 126V710H2051V139Q2051 119 2061.5 109.0Q2072 99 2091 99H2130V0ZM2443 -12Q2363 -12 2304.0 22.5Q2245 57 2213.0 120.0Q2181 183 2181 267Q2181 351 2213.0 413.5Q2245 476 2303.5 511.0Q2362 546 2440 546Q2516 546 2573.5 512.0Q2631 478 2662.0 414.0Q2693 350 2693 260V231H2314Q2318 161 2352.5 125.5Q2387 90 2444 90Q2487 90 2515.5 109.5Q2544 129 2555 164L2686 156Q2664 78 2599.5 33.0Q2535 -12 2443 -12ZM2314 317H2561Q2557 382 2524.0 413.5Q2491 445 2440 445Q2389 445 2355.5 412.0Q2322 379 2314 317ZM2793 0V534H2909L2914 384L2899 390Q2907 446 2932.0 480.0Q2957 514 2993.0 530.0Q3029 546 3072 546Q3131 546 3171.5 520.0Q3212 494 3233.0 448.5Q3254 403 3254 343V0H3126V302Q3126 347 3117.0 378.0Q3108 409 3087.5 425.5Q3067 442 3033 442Q2982 442 2951.5 406.0Q2921 370 2921 302V0Z" fill="#1C1D27"/>
  </g>
  <g transform="translate(323.42 180) scale(0.023000 -0.023000)">
    <path d="M20 0 276 710H392L648 0H554L483 202H185L114 0ZM214 286H454L334 635ZM1102 0Q1056 0 1027.0 24.0Q998 48 998 100V710H1082V107Q1082 91 1090.5 82.5Q1099 74 1115 74H1161V0ZM1466 -12Q1393 -12 1338.0 22.0Q1283 56 1253.0 118.5Q1223 181 1223 265Q1223 350 1253.0 412.0Q1283 474 1338.0 508.0Q1393 542 1466 542Q1539 542 1593.5 508.0Q1648 474 1678.0 412.0Q1708 350 1708 265Q1708 181 1678.0 118.5Q1648 56 1593.5 22.0Q1539 -12 1466 -12ZM1466 68Q1539 68 1579.5 120.5Q1620 173 1620 265Q1620 357 1579.5 409.5Q1539 462 1466 462Q1393 462 1352.0 409.5Q1311 357 1311 265Q1311 173 1352.0 120.5Q1393 68 1466 68ZM2029 -12Q1955 -12 1900.5 22.0Q1846 56 1816.0 118.5Q1786 181 1786 265Q1786 349 1816.0 411.0Q1846 473 1900.5 507.5Q1955 542 2029 542Q2090 542 2137.5 520.5Q2185 499 2215.0 458.0Q2245 417 2254 358L2166 352Q2157 405 2120.0 433.5Q2083 462 2029 462Q1956 462 1915.0 409.5Q1874 357 1874 265Q1874 173 1915.0 120.5Q1956 68 2029 68Q2083 68 2120.0 98.0Q2157 128 2166 188L2254 182Q2245 123 2215.0 79.5Q2185 36 2137.5 12.0Q2090 -12 2029 -12ZM2515 -12Q2433 -12 2384.5 26.0Q2336 64 2336 132Q2336 200 2376.0 239.0Q2416 278 2503 294L2691 329Q2691 396 2659.5 429.0Q2628 462 2565 462Q2510 462 2478.0 437.5Q2446 413 2434 367L2345 374Q2360 449 2417.5 495.5Q2475 542 2565 542Q2667 542 2721.0 484.5Q2775 427 2775 326V107Q2775 89 2781.5 81.5Q2788 74 2803 74H2824V0Q2820 -1 2811.0 -1.5Q2802 -2 2792 -2Q2756 -2 2733.5 9.5Q2711 21 2701.0 45.5Q2691 70 2691 110L2701 108Q2694 74 2667.0 46.5Q2640 19 2600.0 3.5Q2560 -12 2515 -12ZM2523 62Q2576 62 2613.5 82.5Q2651 103 2671.0 138.5Q2691 174 2691 218V256L2519 224Q2465 214 2444.5 193.5Q2424 173 2424 140Q2424 103 2450.5 82.5Q2477 62 2523 62ZM3017 0Q2971 0 2942.0 24.0Q2913 48 2913 100V710H2997V107Q2997 91 3005.5 82.5Q3014 74 3030 74H3076V0ZM3144 252V331H3475V252ZM3641 0V578Q3641 637 3675.0 673.5Q3709 710 3781 710H3865V636H3787Q3756 636 3740.5 619.0Q3725 602 3725 572V0ZM3569 456V530H3858V456ZM3944 0V530H4028V0ZM3942 613V711H4030V613ZM4194 0V530H4268L4272 396L4264 399Q4274 467 4307.5 498.5Q4341 530 4397 530H4449V450H4398Q4358 450 4331.5 435.5Q4305 421 4291.5 392.5Q4278 364 4278 320V0ZM4726 -12Q4653 -12 4603.5 11.0Q4554 34 4527.5 74.5Q4501 115 4497 167L4585 173Q4593 125 4624.5 96.5Q4656 68 4726 68Q4780 68 4809.5 85.5Q4839 103 4839 142Q4839 163 4829.5 177.0Q4820 191 4792.0 201.5Q4764 212 4710 222Q4636 236 4594.0 257.0Q4552 278 4535.0 308.0Q4518 338 4518 380Q4518 451 4570.5 496.5Q4623 542 4719 542Q4789 542 4833.5 517.5Q4878 493 4901.0 454.0Q4924 415 4929 372L4841 366Q4839 391 4826.0 413.0Q4813 435 4787.0 448.5Q4761 462 4717 462Q4660 462 4633.0 440.0Q4606 418 4606 384Q4606 358 4616.5 341.5Q4627 325 4653.5 314.5Q4680 304 4726 296Q4804 283 4848.0 263.0Q4892 243 4909.5 213.5Q4927 184 4927 142Q4927 69 4870.5 28.5Q4814 -12 4726 -12ZM5217 0Q5145 0 5110.5 33.0Q5076 66 5076 136V654H5160V138Q5160 102 5176.0 88.0Q5192 74 5225 74H5301V0ZM4998 456V530H5301V456ZM5605 0 5861 710H5977L6233 0H6139L6068 202H5770L5699 0ZM5799 286H6039L5919 635ZM6325 0V710H6411V0ZM7040 -12Q6965 -12 6910.5 22.0Q6856 56 6826.5 118.5Q6797 181 6797 265Q6797 349 6826.5 411.0Q6856 473 6909.5 507.5Q6963 542 7036 542Q7105 542 7158.0 509.5Q7211 477 7240.5 415.0Q7270 353 7270 264V239H6885Q6890 154 6930.5 111.0Q6971 68 7040 68Q7092 68 7125.5 92.5Q7159 117 7172 157L7262 150Q7241 79 7182.5 33.5Q7124 -12 7040 -12ZM6885 313H7178Q7172 390 7133.5 426.0Q7095 462 7036 462Q6975 462 6935.5 424.5Q6896 387 6885 313ZM7384 0V530H7461L7464 396L7452 400Q7461 444 7483.5 475.5Q7506 507 7539.0 524.5Q7572 542 7612 542Q7681 542 7724.5 504.0Q7768 466 7779 398L7763 399Q7771 445 7792.5 476.5Q7814 508 7848.0 525.0Q7882 542 7926 542Q7983 542 8022.0 518.5Q8061 495 8081.0 450.0Q8101 405 8101 341V0H8017V323Q8017 395 7989.0 431.5Q7961 468 7906 468Q7869 468 7841.5 450.0Q7814 432 7799.0 398.5Q7784 365 7784 317V0H7700V317Q7700 388 7675.0 428.0Q7650 468 7591 468Q7554 468 7526.5 450.0Q7499 432 7483.5 398.0Q7468 364 7468 317V0ZM8394 -12Q8312 -12 8263.5 26.0Q8215 64 8215 132Q8215 200 8255.0 239.0Q8295 278 8382 294L8570 329Q8570 396 8538.5 429.0Q8507 462 8444 462Q8389 462 8357.0 437.5Q8325 413 8313 367L8224 374Q8239 449 8296.5 495.5Q8354 542 8444 542Q8546 542 8600.0 484.5Q8654 427 8654 326V107Q8654 89 8660.5 81.5Q8667 74 8682 74H8703V0Q8699 -1 8690.0 -1.5Q8681 -2 8671 -2Q8635 -2 8612.5 9.5Q8590 21 8580.0 45.5Q8570 70 8570 110L8580 108Q8573 74 8546.0 46.5Q8519 19 8479.0 3.5Q8439 -12 8394 -12ZM8402 62Q8455 62 8492.5 82.5Q8530 103 8550.0 138.5Q8570 174 8570 218V256L8398 224Q8344 214 8323.5 193.5Q8303 173 8303 140Q8303 103 8329.5 82.5Q8356 62 8402 62ZM8794 0V530H8878V0ZM8792 613V711H8880V613ZM9132 0Q9086 0 9057.0 24.0Q9028 48 9028 100V710H9112V107Q9112 91 9120.5 82.5Q9129 74 9145 74H9191V0ZM9688 -12Q9606 -12 9557.5 26.0Q9509 64 9509 132Q9509 200 9549.0 239.0Q9589 278 9676 294L9864 329Q9864 396 9832.5 429.0Q9801 462 9738 462Q9683 462 9651.0 437.5Q9619 413 9607 367L9518 374Q9533 449 9590.5 495.5Q9648 542 9738 542Q9840 542 9894.0 484.5Q9948 427 9948 326V107Q9948 89 9954.5 81.5Q9961 74 9976 74H9997V0Q9993 -1 9984.0 -1.5Q9975 -2 9965 -2Q9929 -2 9906.5 9.5Q9884 21 9874.0 45.5Q9864 70 9864 110L9874 108Q9867 74 9840.0 46.5Q9813 19 9773.0 3.5Q9733 -12 9688 -12ZM9696 62Q9749 62 9786.5 82.5Q9824 103 9844.0 138.5Q9864 174 9864 218V256L9692 224Q9638 214 9617.5 193.5Q9597 173 9597 140Q9597 103 9623.5 82.5Q9650 62 9696 62ZM10283 -12Q10210 -12 10160.5 11.0Q10111 34 10084.5 74.5Q10058 115 10054 167L10142 173Q10150 125 10181.5 96.5Q10213 68 10283 68Q10337 68 10366.5 85.5Q10396 103 10396 142Q10396 163 10386.5 177.0Q10377 191 10349.0 201.5Q10321 212 10267 222Q10193 236 10151.0 257.0Q10109 278 10092.0 308.0Q10075 338 10075 380Q10075 451 10127.5 496.5Q10180 542 10276 542Q10346 542 10390.5 517.5Q10435 493 10458.0 454.0Q10481 415 10486 372L10398 366Q10396 391 10383.0 413.0Q10370 435 10344.0 448.5Q10318 462 10274 462Q10217 462 10190.0 440.0Q10163 418 10163 384Q10163 358 10173.5 341.5Q10184 325 10210.5 314.5Q10237 304 10283 296Q10361 283 10405.0 263.0Q10449 243 10466.5 213.5Q10484 184 10484 142Q10484 69 10427.5 28.5Q10371 -12 10283 -12ZM10793 -12Q10720 -12 10670.5 11.0Q10621 34 10594.5 74.5Q10568 115 10564 167L10652 173Q10660 125 10691.5 96.5Q10723 68 10793 68Q10847 68 10876.5 85.5Q10906 103 10906 142Q10906 163 10896.5 177.0Q10887 191 10859.0 201.5Q10831 212 10777 222Q10703 236 10661.0 257.0Q10619 278 10602.0 308.0Q10585 338 10585 380Q10585 451 10637.5 496.5Q10690 542 10786 542Q10856 542 10900.5 517.5Q10945 493 10968.0 454.0Q10991 415 10996 372L10908 366Q10906 391 10893.0 413.0Q10880 435 10854.0 448.5Q10828 462 10784 462Q10727 462 10700.0 440.0Q10673 418 10673 384Q10673 358 10683.5 341.5Q10694 325 10720.5 314.5Q10747 304 10793 296Q10871 283 10915.0 263.0Q10959 243 10976.5 213.5Q10994 184 10994 142Q10994 69 10937.5 28.5Q10881 -12 10793 -12ZM11110 0V530H11194V0ZM11108 613V711H11196V613ZM11537 -12Q11464 -12 11414.5 11.0Q11365 34 11338.5 74.5Q11312 115 11308 167L11396 173Q11404 125 11435.5 96.5Q11467 68 11537 68Q11591 68 11620.5 85.5Q11650 103 11650 142Q11650 163 11640.5 177.0Q11631 191 11603.0 201.5Q11575 212 11521 222Q11447 236 11405.0 257.0Q11363 278 11346.0 308.0Q11329 338 11329 380Q11329 451 11381.5 496.5Q11434 542 11530 542Q11600 542 11644.5 517.5Q11689 493 11712.0 454.0Q11735 415 11740 372L11652 366Q11650 391 11637.0 413.0Q11624 435 11598.0 448.5Q11572 462 11528 462Q11471 462 11444.0 440.0Q11417 418 11417 384Q11417 358 11427.5 341.5Q11438 325 11464.5 314.5Q11491 304 11537 296Q11615 283 11659.0 263.0Q11703 243 11720.5 213.5Q11738 184 11738 142Q11738 69 11681.5 28.5Q11625 -12 11537 -12ZM12028 0Q11956 0 11921.5 33.0Q11887 66 11887 136V654H11971V138Q11971 102 11987.0 88.0Q12003 74 12036 74H12112V0ZM11809 456V530H12112V456ZM12359 -12Q12277 -12 12228.5 26.0Q12180 64 12180 132Q12180 200 12220.0 239.0Q12260 278 12347 294L12535 329Q12535 396 12503.5 429.0Q12472 462 12409 462Q12354 462 12322.0 437.5Q12290 413 12278 367L12189 374Q12204 449 12261.5 495.5Q12319 542 12409 542Q12511 542 12565.0 484.5Q12619 427 12619 326V107Q12619 89 12625.5 81.5Q12632 74 12647 74H12668V0Q12664 -1 12655.0 -1.5Q12646 -2 12636 -2Q12600 -2 12577.5 9.5Q12555 21 12545.0 45.5Q12535 70 12535 110L12545 108Q12538 74 12511.0 46.5Q12484 19 12444.0 3.5Q12404 -12 12359 -12ZM12367 62Q12420 62 12457.5 82.5Q12495 103 12515.0 138.5Q12535 174 12535 218V256L12363 224Q12309 214 12288.5 193.5Q12268 173 12268 140Q12268 103 12294.5 82.5Q12321 62 12367 62ZM12763 0V530H12840L12843 395L12833 404Q12843 451 12868.0 481.5Q12893 512 12928.5 527.0Q12964 542 13005 542Q13066 542 13105.5 515.0Q13145 488 13164.5 442.5Q13184 397 13184 341V0H13100V317Q13100 366 13088.5 399.5Q13077 433 13052.0 450.5Q13027 468 12987 468Q12926 468 12886.5 429.5Q12847 391 12847 317V0ZM13498 0Q13426 0 13391.5 33.0Q13357 66 13357 136V654H13441V138Q13441 102 13457.0 88.0Q13473 74 13506 74H13582V0ZM13279 456V530H13582V456Z" fill="#5F6170"/>
  </g>
</svg>
